<mxfile host="app.diagrams.net" modified="2024-06-06T10:23:11.692Z" agent="Mozilla/5.0 (Windows NT 10.0; Win64; x64) AppleWebKit/537.36 (KHTML, like Gecko) Chrome/125.0.0.0 Safari/537.36 Edg/125.0.0.0" version="24.4.15" etag="EfSSMBYShGqxVd20sci8" type="device">
  <diagram id="C5RBs43oDa-KdzZeNtuy" name="Page-1">
    <mxGraphModel dx="1413" dy="1907" grid="1" gridSize="10" guides="1" tooltips="1" connect="1" arrows="1" fold="1" page="1" pageScale="1" pageWidth="827" pageHeight="1169" math="0" shadow="0">
      <root>
        <mxCell id="WIyWlLk6GJQsqaUBKTNV-0" />
        <mxCell id="WIyWlLk6GJQsqaUBKTNV-1" parent="WIyWlLk6GJQsqaUBKTNV-0" />
        <mxCell id="7JT59067cthwFR-zT8vV-0" style="edgeStyle=orthogonalEdgeStyle;rounded=0;orthogonalLoop=1;jettySize=auto;html=1;exitX=0.5;exitY=1;exitDx=0;exitDy=0;entryX=0.5;entryY=0;entryDx=0;entryDy=0;" edge="1" parent="WIyWlLk6GJQsqaUBKTNV-1" source="7JT59067cthwFR-zT8vV-1" target="7JT59067cthwFR-zT8vV-2">
          <mxGeometry relative="1" as="geometry" />
        </mxCell>
        <mxCell id="7JT59067cthwFR-zT8vV-1" value="User starts app" style="rounded=1;whiteSpace=wrap;html=1;" vertex="1" parent="WIyWlLk6GJQsqaUBKTNV-1">
          <mxGeometry x="40" y="-1110" width="120" height="60" as="geometry" />
        </mxCell>
        <mxCell id="7JT59067cthwFR-zT8vV-5" style="edgeStyle=orthogonalEdgeStyle;rounded=0;orthogonalLoop=1;jettySize=auto;html=1;exitX=0.5;exitY=1;exitDx=0;exitDy=0;" edge="1" parent="WIyWlLk6GJQsqaUBKTNV-1" source="7JT59067cthwFR-zT8vV-2" target="7JT59067cthwFR-zT8vV-4">
          <mxGeometry relative="1" as="geometry" />
        </mxCell>
        <mxCell id="7JT59067cthwFR-zT8vV-2" value="User successfully logged in" style="rounded=1;whiteSpace=wrap;html=1;" vertex="1" parent="WIyWlLk6GJQsqaUBKTNV-1">
          <mxGeometry x="40" y="-990" width="120" height="60" as="geometry" />
        </mxCell>
        <mxCell id="7JT59067cthwFR-zT8vV-3" value="Unfriend user" style="text;html=1;align=center;verticalAlign=middle;resizable=0;points=[];autosize=1;strokeColor=none;fillColor=none;" vertex="1" parent="WIyWlLk6GJQsqaUBKTNV-1">
          <mxGeometry x="40" y="-1160" width="100" height="30" as="geometry" />
        </mxCell>
        <mxCell id="7JT59067cthwFR-zT8vV-7" style="edgeStyle=orthogonalEdgeStyle;rounded=0;orthogonalLoop=1;jettySize=auto;html=1;exitX=0.5;exitY=1;exitDx=0;exitDy=0;entryX=0.5;entryY=0;entryDx=0;entryDy=0;" edge="1" parent="WIyWlLk6GJQsqaUBKTNV-1" source="7JT59067cthwFR-zT8vV-4" target="7JT59067cthwFR-zT8vV-6">
          <mxGeometry relative="1" as="geometry" />
        </mxCell>
        <mxCell id="7JT59067cthwFR-zT8vV-4" value="User presses the remove friend button of the other user he wants to unfriend" style="rounded=1;whiteSpace=wrap;html=1;" vertex="1" parent="WIyWlLk6GJQsqaUBKTNV-1">
          <mxGeometry x="40" y="-870" width="120" height="60" as="geometry" />
        </mxCell>
        <mxCell id="7JT59067cthwFR-zT8vV-9" style="edgeStyle=orthogonalEdgeStyle;rounded=0;orthogonalLoop=1;jettySize=auto;html=1;exitX=0.5;exitY=1;exitDx=0;exitDy=0;entryX=0.5;entryY=0;entryDx=0;entryDy=0;" edge="1" parent="WIyWlLk6GJQsqaUBKTNV-1" source="7JT59067cthwFR-zT8vV-6" target="7JT59067cthwFR-zT8vV-8">
          <mxGeometry relative="1" as="geometry" />
        </mxCell>
        <mxCell id="7JT59067cthwFR-zT8vV-6" value="System deletes friend relation" style="rounded=1;whiteSpace=wrap;html=1;" vertex="1" parent="WIyWlLk6GJQsqaUBKTNV-1">
          <mxGeometry x="40" y="-750" width="120" height="60" as="geometry" />
        </mxCell>
        <mxCell id="7JT59067cthwFR-zT8vV-11" style="edgeStyle=orthogonalEdgeStyle;rounded=0;orthogonalLoop=1;jettySize=auto;html=1;exitX=0.5;exitY=1;exitDx=0;exitDy=0;entryX=0.5;entryY=0;entryDx=0;entryDy=0;" edge="1" parent="WIyWlLk6GJQsqaUBKTNV-1" source="7JT59067cthwFR-zT8vV-8" target="7JT59067cthwFR-zT8vV-10">
          <mxGeometry relative="1" as="geometry" />
        </mxCell>
        <mxCell id="7JT59067cthwFR-zT8vV-8" value="System no longer displays user as friend" style="rounded=1;whiteSpace=wrap;html=1;" vertex="1" parent="WIyWlLk6GJQsqaUBKTNV-1">
          <mxGeometry x="40" y="-630" width="120" height="60" as="geometry" />
        </mxCell>
        <mxCell id="7JT59067cthwFR-zT8vV-10" value="Other user is now in list of all users that are not friends, new request can be send" style="rounded=1;whiteSpace=wrap;html=1;" vertex="1" parent="WIyWlLk6GJQsqaUBKTNV-1">
          <mxGeometry x="40" y="-510" width="120" height="60" as="geometry" />
        </mxCell>
        <mxCell id="7JT59067cthwFR-zT8vV-14" style="edgeStyle=orthogonalEdgeStyle;rounded=0;orthogonalLoop=1;jettySize=auto;html=1;exitX=0.5;exitY=1;exitDx=0;exitDy=0;entryX=0.5;entryY=0;entryDx=0;entryDy=0;" edge="1" parent="WIyWlLk6GJQsqaUBKTNV-1" source="7JT59067cthwFR-zT8vV-15" target="7JT59067cthwFR-zT8vV-16">
          <mxGeometry relative="1" as="geometry" />
        </mxCell>
        <mxCell id="7JT59067cthwFR-zT8vV-15" value="User starts app" style="rounded=1;whiteSpace=wrap;html=1;" vertex="1" parent="WIyWlLk6GJQsqaUBKTNV-1">
          <mxGeometry x="240" y="-1110" width="120" height="60" as="geometry" />
        </mxCell>
        <mxCell id="7JT59067cthwFR-zT8vV-19" style="edgeStyle=orthogonalEdgeStyle;rounded=0;orthogonalLoop=1;jettySize=auto;html=1;exitX=0.5;exitY=1;exitDx=0;exitDy=0;entryX=0.5;entryY=0;entryDx=0;entryDy=0;" edge="1" parent="WIyWlLk6GJQsqaUBKTNV-1" source="7JT59067cthwFR-zT8vV-16" target="7JT59067cthwFR-zT8vV-18">
          <mxGeometry relative="1" as="geometry" />
        </mxCell>
        <mxCell id="7JT59067cthwFR-zT8vV-16" value="User successfully logged in" style="rounded=1;whiteSpace=wrap;html=1;" vertex="1" parent="WIyWlLk6GJQsqaUBKTNV-1">
          <mxGeometry x="240" y="-990" width="120" height="60" as="geometry" />
        </mxCell>
        <mxCell id="7JT59067cthwFR-zT8vV-17" value="Accept friend request" style="text;html=1;align=center;verticalAlign=middle;resizable=0;points=[];autosize=1;strokeColor=none;fillColor=none;" vertex="1" parent="WIyWlLk6GJQsqaUBKTNV-1">
          <mxGeometry x="240" y="-1160" width="140" height="30" as="geometry" />
        </mxCell>
        <mxCell id="7JT59067cthwFR-zT8vV-21" style="edgeStyle=orthogonalEdgeStyle;rounded=0;orthogonalLoop=1;jettySize=auto;html=1;exitX=0.5;exitY=1;exitDx=0;exitDy=0;" edge="1" parent="WIyWlLk6GJQsqaUBKTNV-1" source="7JT59067cthwFR-zT8vV-18" target="7JT59067cthwFR-zT8vV-20">
          <mxGeometry relative="1" as="geometry" />
        </mxCell>
        <mxCell id="7JT59067cthwFR-zT8vV-18" value="User presses the accept button of the friend request he want to accept" style="rounded=1;whiteSpace=wrap;html=1;" vertex="1" parent="WIyWlLk6GJQsqaUBKTNV-1">
          <mxGeometry x="240" y="-870" width="120" height="60" as="geometry" />
        </mxCell>
        <mxCell id="7JT59067cthwFR-zT8vV-23" style="edgeStyle=orthogonalEdgeStyle;rounded=0;orthogonalLoop=1;jettySize=auto;html=1;exitX=0.5;exitY=1;exitDx=0;exitDy=0;entryX=0.5;entryY=0;entryDx=0;entryDy=0;" edge="1" parent="WIyWlLk6GJQsqaUBKTNV-1" source="7JT59067cthwFR-zT8vV-20" target="7JT59067cthwFR-zT8vV-22">
          <mxGeometry relative="1" as="geometry" />
        </mxCell>
        <mxCell id="7JT59067cthwFR-zT8vV-20" value="System updates the friend request to accepted" style="rounded=1;whiteSpace=wrap;html=1;" vertex="1" parent="WIyWlLk6GJQsqaUBKTNV-1">
          <mxGeometry x="240" y="-750" width="120" height="60" as="geometry" />
        </mxCell>
        <mxCell id="7JT59067cthwFR-zT8vV-25" style="edgeStyle=orthogonalEdgeStyle;rounded=0;orthogonalLoop=1;jettySize=auto;html=1;exitX=0.5;exitY=1;exitDx=0;exitDy=0;entryX=0.5;entryY=0;entryDx=0;entryDy=0;" edge="1" parent="WIyWlLk6GJQsqaUBKTNV-1" source="7JT59067cthwFR-zT8vV-22" target="7JT59067cthwFR-zT8vV-24">
          <mxGeometry relative="1" as="geometry" />
        </mxCell>
        <mxCell id="7JT59067cthwFR-zT8vV-22" value="System no longer displays the friend request&amp;nbsp;" style="rounded=1;whiteSpace=wrap;html=1;" vertex="1" parent="WIyWlLk6GJQsqaUBKTNV-1">
          <mxGeometry x="240" y="-630" width="120" height="60" as="geometry" />
        </mxCell>
        <mxCell id="7JT59067cthwFR-zT8vV-24" value="System now displays user as friend" style="rounded=1;whiteSpace=wrap;html=1;" vertex="1" parent="WIyWlLk6GJQsqaUBKTNV-1">
          <mxGeometry x="240" y="-510" width="120" height="60" as="geometry" />
        </mxCell>
      </root>
    </mxGraphModel>
  </diagram>
</mxfile>
